# xmcd CD database file
#
# Track frame offsets:
#	150
#	12921
#	40144
#	61063
#	83982
#	105002
#	125264
#	145459
#	161435
#	179220
#	192559
#	212434
#
# Disc length: 2927 seconds
#
# Revision: 2
# Processed by: cddbd v1.4PL0 Copyright (c) Steve Scherf et al.
# Submitted via: Feurio! 1.62 - http://www.feurio.com
#
DISCID=9e0b6d0c
DTITLE=Bill Wharton And The Ingredients - Gumbo Man
DYEAR=1900
DGENRE=blues
TTITLE0=Wash My Spoon
TTITLE1=Wild And Tender
TTITLE2=Mama Don't Allow - Crawdad Song
TTITLE3=Child Of Fortune
TTITLE4=Ruby
TTITLE5=So Good
TTITLE6=Gizmo
TTITLE7=Play For You
TTITLE8=Small Town
TTITLE9=Country Boy Blues
TTITLE10=All That Meat And No Potatoes
TTITLE11=Along Here
EXTD=
EXTT0=
EXTT1=
EXTT2=
EXTT3=
EXTT4=
EXTT5=
EXTT6=
EXTT7=
EXTT8=
EXTT9=
EXTT10=
EXTT11=
PLAYORDER=
